<svg version="1.1" xmlns="http://www.w3.org/2000/svg" viewBox="0 0 1615.8643571550847 866.4702101524339" width="4847.593071465254" height="2599.4106304573015">
  <!-- svg-source:excalidraw -->
  
  <defs>
    <style class="style-fonts">
      @font-face {
        font-family: "Virgil";
        src: url("https://excalidraw.com/Virgil.woff2");
      }
      @font-face {
        font-family: "Cascadia";
        src: url("https://excalidraw.com/Cascadia.woff2");
      }
    </style>
    
  </defs>
  <rect x="0" y="0" width="1615.8643571550847" height="866.4702101524339" fill="#ffffff"></rect><g stroke-linecap="round" transform="translate(229.07936507936506 282.22175516016324) rotate(0 95.75396825396825 64.5079365079365)"><path d="M32 0 C67.77 2, 100.01 -1.6, 159.51 0 C178.4 -0.73, 190.6 11.83, 191.51 32 C191.48 48.92, 192.65 62.27, 191.51 97.02 C193.3 116.35, 184.35 128.22, 159.51 129.02 C107.99 128.53, 61.1 132.39, 32 129.02 C7.91 127.42, -1.19 120.45, 0 97.02 C-1.63 77.35, 1.26 49.8, 0 32 C3.42 12.91, 11.6 2.66, 32 0" stroke="none" stroke-width="0" fill="#b2f2bb"></path><path d="M32 0 C74.18 -0.35, 116.07 1.61, 159.51 0 M32 0 C81.11 -0.34, 130.33 -1.12, 159.51 0 M159.51 0 C182.78 -1.48, 190.16 12.23, 191.51 32 M159.51 0 C180.62 -0.81, 191.46 10.8, 191.51 32 M191.51 32 C189.94 55.87, 193.55 75.4, 191.51 97.02 M191.51 32 C190.82 48.78, 192.13 67.94, 191.51 97.02 M191.51 97.02 C192.94 118.64, 180.2 129.45, 159.51 129.02 M191.51 97.02 C190.01 120.23, 182.72 128.19, 159.51 129.02 M159.51 129.02 C110.57 128.64, 60.58 127.78, 32 129.02 M159.51 129.02 C113.68 129.05, 68.75 128.27, 32 129.02 M32 129.02 C10.29 128.28, -0.09 118.28, 0 97.02 M32 129.02 C12.44 129.72, -0.28 119.76, 0 97.02 M0 97.02 C-0.27 78.63, 0.58 61.98, 0 32 M0 97.02 C-0.27 74.03, -0.81 53.24, 0 32 M0 32 C0.85 9.36, 8.87 1.58, 32 0 M0 32 C1.86 9.76, 9.27 -0.46, 32 0" stroke="#2f9e44" stroke-width="2" fill="none"></path></g><g transform="translate(289.65833409627277 334.22969166809975) rotate(0 35.17499923706055 12.5)"><text x="35.17499923706055" y="0" font-family="Virgil, Segoe UI Emoji" font-size="20px" fill="#2f9e44" text-anchor="middle" style="white-space: pre;" direction="ltr" dominant-baseline="text-before-edge">Master</text></g><g stroke-linecap="round" transform="translate(183.7500000000001 474.610182302302) rotate(0 51.5 32.5)"><path d="M16.25 0 C46.5 0.44, 69.06 4.24, 86.75 0 C96.42 2.3, 105.51 7.68, 103 16.25 C106.18 25.78, 102.33 37.46, 103 48.75 C100.57 62.8, 96.05 62.41, 86.75 65 C67.64 62.31, 52.13 66.56, 16.25 65 C8.92 64.91, 0.07 63.18, 0 48.75 C-2.6 36.85, 2.02 24.83, 0 16.25 C1.71 7.08, 7.58 -3, 16.25 0" stroke="none" stroke-width="0" fill="#a5d8ff"></path><path d="M16.25 0 C37.99 1.28, 61.67 -0.01, 86.75 0 M16.25 0 C34.11 -0.28, 52.89 -0.14, 86.75 0 M86.75 0 C97.51 1.55, 103.61 5.17, 103 16.25 M86.75 0 C99 -0.61, 105.03 5.75, 103 16.25 M103 16.25 C103.44 27.33, 103.78 36.93, 103 48.75 M103 16.25 C103.35 26.47, 102.09 34.94, 103 48.75 M103 48.75 C104.58 61.2, 96.8 63.79, 86.75 65 M103 48.75 C102.54 58.96, 97.03 63.09, 86.75 65 M86.75 65 C61.75 63.33, 40.23 64.19, 16.25 65 M86.75 65 C62.37 64.77, 39.97 65.09, 16.25 65 M16.25 65 C3.73 66, -1.11 61.53, 0 48.75 M16.25 65 C4.91 67.12, 1.66 59.53, 0 48.75 M0 48.75 C1.94 38.82, -0.85 31.29, 0 16.25 M0 48.75 C0.75 36.94, 0.51 26.09, 0 16.25 M0 16.25 C-1.85 7.32, 6.66 0.52, 16.25 0 M0 16.25 C1.7 6.33, 7.59 2.29, 16.25 0" stroke="#1971c2" stroke-width="2" fill="none"></path></g><g transform="translate(208.20000076293957 494.610182302302) rotate(0 27.049999237060547 12.5)"><text x="27.049999237060547" y="0" font-family="Virgil, Segoe UI Emoji" font-size="20px" fill="#1971c2" text-anchor="middle" style="white-space: pre;" direction="ltr" dominant-baseline="text-before-edge">Client</text></g><g stroke-linecap="round" transform="translate(366.2500000000001 474.610182302302) rotate(0 51.5 32.5)"><path d="M16.25 0 C35.04 1.17, 58.68 1.13, 86.75 0 C97.38 -1.15, 105.68 8.78, 103 16.25 C100.49 29.19, 101.39 33.1, 103 48.75 C100.5 57.79, 96.44 62.15, 86.75 65 C73.58 65.6, 53.47 69.29, 16.25 65 C7.08 67.13, -1.99 57.33, 0 48.75 C1.32 41.25, 1.78 27.42, 0 16.25 C2.14 5.66, 8.4 2.05, 16.25 0" stroke="none" stroke-width="0" fill="#a5d8ff"></path><path d="M16.25 0 C40.63 0.33, 66.78 -1.24, 86.75 0 M16.25 0 C36.05 0.8, 56.23 -0.09, 86.75 0 M86.75 0 C98.81 -0.53, 104.76 5.71, 103 16.25 M86.75 0 C97.94 -0.69, 104.32 6.03, 103 16.25 M103 16.25 C103.17 25.76, 102.08 39.65, 103 48.75 M103 16.25 C103.58 28.19, 102.39 37.91, 103 48.75 M103 48.75 C102.6 59.04, 97.1 63.34, 86.75 65 M103 48.75 C103.62 59.64, 96.57 62.76, 86.75 65 M86.75 65 C71.03 63.94, 52.84 62.91, 16.25 65 M86.75 65 C63.46 65.86, 41.31 66.33, 16.25 65 M16.25 65 C4.98 66.85, 1.45 59.54, 0 48.75 M16.25 65 C4.46 64.72, 1.05 61.77, 0 48.75 M0 48.75 C1.31 42.24, 1.95 35.97, 0 16.25 M0 48.75 C-1.13 40.46, 0.42 30.53, 0 16.25 M0 16.25 C1.48 6.21, 7.3 1.99, 16.25 0 M0 16.25 C1.94 5.29, 3.52 2.02, 16.25 0" stroke="#1971c2" stroke-width="2" fill="none"></path></g><g transform="translate(390.70000076293957 494.610182302302) rotate(0 27.049999237060547 12.5)"><text x="27.049999237060547" y="0" font-family="Virgil, Segoe UI Emoji" font-size="20px" fill="#1971c2" text-anchor="middle" style="white-space: pre;" direction="ltr" dominant-baseline="text-before-edge">Client</text></g><g stroke-linecap="round"><g transform="translate(323.7500000000001 411.860182302302) rotate(0 -44.90558777539059 31.770354748619717)"><path d="M-0.77 -0.22 C-13.71 3.41, -62.56 11.09, -77.44 21.95 C-92.32 32.8, -88.01 57.94, -90.04 64.93 M1.02 -1.39 C-12.12 2.43, -63.31 12.71, -78.62 23.45 C-93.93 34.2, -89.07 56.17, -90.83 63.07" stroke="#1e1e1e" stroke-width="2" fill="none"></path></g></g><mask></mask><g stroke-linecap="round"><g transform="translate(321.7500000000001 411.860182302302) rotate(0 47.96345422156155 30.48150316504762)"><path d="M-0.44 -0.05 C13.68 4.3, 67.82 15.78, 83.96 25.93 C100.09 36.08, 94.24 55.06, 96.37 60.85 M1.53 -1.13 C15.56 2.92, 67.28 13.75, 82.99 24.29 C98.7 34.83, 93.4 55.87, 95.79 62.09" stroke="#1e1e1e" stroke-width="2" fill="none"></path></g></g><mask></mask><g stroke-linecap="round" transform="translate(544.9999999999999 269.22969166809963) rotate(0 51.5 32.5)"><path d="M16.25 0 C30.06 1.1, 47.17 0.94, 86.75 0 C99.79 1.39, 100.05 4.35, 103 16.25 C100.37 26.28, 101.67 39.1, 103 48.75 C104.04 62.22, 95.03 63.83, 86.75 65 C60.86 65.22, 41.66 64.21, 16.25 65 C1.98 62.81, -2.86 61.12, 0 48.75 C2.88 41.11, 0.39 25.71, 0 16.25 C-1.61 6.64, 2.5 3.52, 16.25 0" stroke="none" stroke-width="0" fill="#a5d8ff"></path><path d="M16.25 0 C40.47 -1.12, 61.45 1.87, 86.75 0 M16.25 0 C35.47 -1.05, 53.69 -1.4, 86.75 0 M86.75 0 C96.82 -0.78, 104.4 6.55, 103 16.25 M86.75 0 C97.71 0.73, 104.05 6.93, 103 16.25 M103 16.25 C101.23 29.9, 102.91 39.38, 103 48.75 M103 16.25 C103.19 27.82, 102.38 40.33, 103 48.75 M103 48.75 C103.2 60.89, 99.19 64.53, 86.75 65 M103 48.75 C101.55 59.79, 95.93 64.22, 86.75 65 M86.75 65 C68.66 63.98, 52.19 64.8, 16.25 65 M86.75 65 C61.76 65.13, 35.28 65.04, 16.25 65 M16.25 65 C5.57 65.27, 1.08 57.99, 0 48.75 M16.25 65 C3.46 65.42, -0.28 59.77, 0 48.75 M0 48.75 C-0.07 39.65, -0.58 26.84, 0 16.25 M0 48.75 C-0.59 39.4, -0.31 30.27, 0 16.25 M0 16.25 C-1.63 6.15, 5.73 1.82, 16.25 0 M0 16.25 C1.94 3.74, 6.56 -2.02, 16.25 0" stroke="#1971c2" stroke-width="2" fill="none"></path></g><g transform="translate(569.4500007629393 289.22969166809963) rotate(0 27.049999237060547 12.5)"><text x="27.049999237060547" y="0" font-family="Virgil, Segoe UI Emoji" font-size="20px" fill="#1971c2" text-anchor="middle" style="white-space: pre;" direction="ltr" dominant-baseline="text-before-edge">Client</text></g><g stroke-linecap="round" transform="translate(546.6666666666666 360.89635833476626) rotate(0 51.5 32.5)"><path d="M16.25 0 C40.65 3.51, 64.49 4.51, 86.75 0 C95.39 -1.96, 102.11 4.3, 103 16.25 C102.26 28.46, 100.16 40.35, 103 48.75 C101.24 58.84, 100.75 63.25, 86.75 65 C73.87 65.42, 58.59 67.39, 16.25 65 C8.41 68.4, 0.5 58.62, 0 48.75 C3.32 40.09, -2.01 33.12, 0 16.25 C3.08 7.8, 3.95 0.99, 16.25 0" stroke="none" stroke-width="0" fill="#a5d8ff"></path><path d="M16.25 0 C35.47 -1.64, 52.69 -2.35, 86.75 0 M16.25 0 C35.26 -0.44, 53.46 -0.03, 86.75 0 M86.75 0 C98.9 1.36, 103.5 4.46, 103 16.25 M86.75 0 C95.45 1.94, 102.8 4.5, 103 16.25 M103 16.25 C103.09 26.99, 101.48 39.59, 103 48.75 M103 16.25 C102.98 25.69, 103.3 35.68, 103 48.75 M103 48.75 C102.32 58.3, 96.66 66.6, 86.75 65 M103 48.75 C101.32 57.76, 96.07 64.12, 86.75 65 M86.75 65 C62.72 65.89, 35.73 65.71, 16.25 65 M86.75 65 C64.27 64.53, 43.56 65.26, 16.25 65 M16.25 65 C5.58 65.76, 0.14 59.64, 0 48.75 M16.25 65 C5.36 67.17, -0.65 59.65, 0 48.75 M0 48.75 C-1.18 39.19, -0.61 30.07, 0 16.25 M0 48.75 C0.79 42.5, -0.85 35.05, 0 16.25 M0 16.25 C-1.75 4.17, 6.4 -0.37, 16.25 0 M0 16.25 C-1.88 5.97, 3.77 0.45, 16.25 0" stroke="#1971c2" stroke-width="2" fill="none"></path></g><g transform="translate(571.1166674296061 380.89635833476626) rotate(0 27.049999237060547 12.5)"><text x="27.049999237060547" y="0" font-family="Virgil, Segoe UI Emoji" font-size="20px" fill="#1971c2" text-anchor="middle" style="white-space: pre;" direction="ltr" dominant-baseline="text-before-edge">Client</text></g><g stroke-linecap="round" transform="translate(206.66666666666686 142.56302500143312) rotate(0 51.5 32.5)"><path d="M16.25 0 C31.98 1.36, 52.58 -2.24, 86.75 0 C96.42 1.52, 99.73 8.13, 103 16.25 C101.13 20.97, 100.69 29.71, 103 48.75 C104.54 61.01, 98.26 68.39, 86.75 65 C58.77 63.56, 33.96 62.26, 16.25 65 C8.94 64.63, -1.81 60.54, 0 48.75 C0.6 33.7, -3.54 20.36, 0 16.25 C-3.19 1.86, 5.58 2.35, 16.25 0" stroke="none" stroke-width="0" fill="#a5d8ff"></path><path d="M16.25 0 C35.83 -0.38, 53.78 0.43, 86.75 0 M16.25 0 C41.57 -1.1, 68.68 -0.26, 86.75 0 M86.75 0 C96.79 1.64, 104.75 6.56, 103 16.25 M86.75 0 C97.36 -1.92, 100.92 3.71, 103 16.25 M103 16.25 C102.75 25.06, 103.39 34.96, 103 48.75 M103 16.25 C103.59 24.17, 102 32.89, 103 48.75 M103 48.75 C102.23 60.95, 98.65 63.2, 86.75 65 M103 48.75 C105.22 61.34, 98.62 66.55, 86.75 65 M86.75 65 C63.47 63.68, 43.74 65.14, 16.25 65 M86.75 65 C65.05 65.03, 44.24 64.77, 16.25 65 M16.25 65 C5.48 64.63, 0 61.21, 0 48.75 M16.25 65 C4.06 64.52, -0.7 59.13, 0 48.75 M0 48.75 C1.71 43.34, -1.58 35.55, 0 16.25 M0 48.75 C0.02 41.04, 0.44 34.24, 0 16.25 M0 16.25 C0.39 6.64, 6.19 -1.64, 16.25 0 M0 16.25 C-0.68 7, 3.7 2.22, 16.25 0" stroke="#1971c2" stroke-width="2" fill="none"></path></g><g transform="translate(231.1166674296063 162.56302500143312) rotate(0 27.049999237060547 12.5)"><text x="27.049999237060547" y="0" font-family="Virgil, Segoe UI Emoji" font-size="20px" fill="#1971c2" text-anchor="middle" style="white-space: pre;" direction="ltr" dominant-baseline="text-before-edge">Client</text></g><g stroke-linecap="round" transform="translate(344.99999999999966 142.563025001433) rotate(0 51.5 32.5)"><path d="M16.25 0 C37.83 -0.61, 53.24 4.32, 86.75 0 C95.84 -3.44, 100.81 2.56, 103 16.25 C106.62 30.38, 106.63 39.03, 103 48.75 C102.03 57.97, 98.81 62.09, 86.75 65 C59.66 67.44, 33.05 62.9, 16.25 65 C6.41 62.47, -3.15 56.25, 0 48.75 C2.93 44.26, 2.25 37.42, 0 16.25 C1.09 4.62, 8.61 -0.98, 16.25 0" stroke="none" stroke-width="0" fill="#a5d8ff"></path><path d="M16.25 0 C41.09 -2.03, 69.53 -0.35, 86.75 0 M16.25 0 C35.17 -0.72, 52.12 -1.52, 86.75 0 M86.75 0 C96.1 0.2, 104.31 7.02, 103 16.25 M86.75 0 C97.05 -1.45, 103.21 3.76, 103 16.25 M103 16.25 C104.39 23.44, 101.2 32.23, 103 48.75 M103 16.25 C102.32 25.72, 103.98 33.7, 103 48.75 M103 48.75 C104.35 59.74, 97.85 66.08, 86.75 65 M103 48.75 C101.17 57.63, 98.01 64.72, 86.75 65 M86.75 65 C65.08 65, 45.19 64.49, 16.25 65 M86.75 65 C66.2 64.41, 43.82 64.69, 16.25 65 M16.25 65 C5.02 63.37, 0.73 59.89, 0 48.75 M16.25 65 C7.52 66.94, -1.68 60.72, 0 48.75 M0 48.75 C-0.17 40.22, 0.68 33.52, 0 16.25 M0 48.75 C-1.02 38.07, 0.49 27.23, 0 16.25 M0 16.25 C1.93 4.2, 4.33 -0.49, 16.25 0 M0 16.25 C-0.72 6.08, 7.1 -1.63, 16.25 0" stroke="#1971c2" stroke-width="2" fill="none"></path></g><g transform="translate(369.4500007629391 162.563025001433) rotate(0 27.049999237060547 12.5)"><text x="27.049999237060547" y="0" font-family="Virgil, Segoe UI Emoji" font-size="20px" fill="#1971c2" text-anchor="middle" style="white-space: pre;" direction="ltr" dominant-baseline="text-before-edge">Client</text></g><g stroke-linecap="round" transform="translate(10 255.89635833476638) rotate(0 51.5 32.5)"><path d="M16.25 0 C31.12 2.31, 53.13 1.45, 86.75 0 C100.98 2.99, 106.4 5.92, 103 16.25 C99.82 28.65, 102.37 32.19, 103 48.75 C103.96 62.66, 99.97 63.53, 86.75 65 C60.33 60.7, 37.02 64.05, 16.25 65 C7.76 67.38, 1.67 61.99, 0 48.75 C-0.85 38.98, -2.33 24.71, 0 16.25 C1.58 5.6, 2.2 -2.1, 16.25 0" stroke="none" stroke-width="0" fill="#a5d8ff"></path><path d="M16.25 0 C35.75 -0.82, 51.29 -2.43, 86.75 0 M16.25 0 C32.97 -0.69, 47.46 -0.37, 86.75 0 M86.75 0 C96.14 -0.68, 101.72 4.5, 103 16.25 M86.75 0 C99.42 -1.68, 101.17 3.9, 103 16.25 M103 16.25 C101.42 26.69, 104.75 34.15, 103 48.75 M103 16.25 C103.56 27.39, 102.17 40.32, 103 48.75 M103 48.75 C102.76 59.75, 98.34 65.14, 86.75 65 M103 48.75 C103.06 59.53, 99.75 64.35, 86.75 65 M86.75 65 C67.02 63.82, 43.61 64.39, 16.25 65 M86.75 65 C67.14 66.17, 48.06 64.53, 16.25 65 M16.25 65 C6.41 63.25, -1.25 60.56, 0 48.75 M16.25 65 C4.99 63.12, 0.55 57.94, 0 48.75 M0 48.75 C-1.84 37.77, 1.18 26.48, 0 16.25 M0 48.75 C-0.05 35.56, 0.49 23.72, 0 16.25 M0 16.25 C-1.42 4.77, 6.26 -1.81, 16.25 0 M0 16.25 C1.74 4.29, 4.94 2.03, 16.25 0" stroke="#1971c2" stroke-width="2" fill="none"></path></g><g transform="translate(34.45000076293945 275.8963583347664) rotate(0 27.049999237060547 12.5)"><text x="27.049999237060547" y="0" font-family="Virgil, Segoe UI Emoji" font-size="20px" fill="#1971c2" text-anchor="middle" style="white-space: pre;" direction="ltr" dominant-baseline="text-before-edge">Client</text></g><g stroke-linecap="round" transform="translate(11.666666666666742 354.22969166809975) rotate(0 51.5 32.5)"><path d="M16.25 0 C44.55 -2.17, 70.23 0.03, 86.75 0 C94.67 3.52, 102.63 3.6, 103 16.25 C102.03 27.85, 100.97 34.32, 103 48.75 C99.67 56.39, 94.02 65.16, 86.75 65 C63.41 66.68, 34.46 68.78, 16.25 65 C4.44 65.96, -2.46 57, 0 48.75 C-2.13 35.77, -2.07 29.88, 0 16.25 C2.95 5.74, 3.42 -1.1, 16.25 0" stroke="none" stroke-width="0" fill="#a5d8ff"></path><path d="M16.25 0 C33.78 -0.93, 46.83 -0.28, 86.75 0 M16.25 0 C31.86 1.25, 47.66 -0.34, 86.75 0 M86.75 0 C96.27 -0.77, 104.36 6.49, 103 16.25 M86.75 0 C95.51 2.22, 104.75 6.45, 103 16.25 M103 16.25 C104.1 26.6, 101.32 40.5, 103 48.75 M103 16.25 C103.1 25.63, 103 35.91, 103 48.75 M103 48.75 C102.44 59.64, 97.21 65, 86.75 65 M103 48.75 C104.87 58.23, 97.1 64.3, 86.75 65 M86.75 65 C67.29 67.08, 48.91 63.8, 16.25 65 M86.75 65 C62.59 64.38, 36.64 64.8, 16.25 65 M16.25 65 C3.99 65.39, 1.22 60.36, 0 48.75 M16.25 65 C3.53 64.32, 1.58 57.86, 0 48.75 M0 48.75 C-0.3 35.24, 0.78 24.45, 0 16.25 M0 48.75 C-0.8 42.06, -0.38 33.65, 0 16.25 M0 16.25 C1.76 4.45, 3.51 -1.22, 16.25 0 M0 16.25 C-1.83 6.4, 6.33 0.43, 16.25 0" stroke="#1971c2" stroke-width="2" fill="none"></path></g><g transform="translate(36.116667429606196 374.22969166809975) rotate(0 27.049999237060547 12.5)"><text x="27.049999237060547" y="0" font-family="Virgil, Segoe UI Emoji" font-size="20px" fill="#1971c2" text-anchor="middle" style="white-space: pre;" direction="ltr" dominant-baseline="text-before-edge">Client</text></g><g stroke-linecap="round"><g transform="translate(256.4606813206477 208.9161826897054) rotate(0 31.841273712499987 35.76897894344013)"><path d="M-1.09 -0.29 C0.61 6.86, -1.87 30.24, 9.1 42.28 C20.08 54.33, 55.6 66.91, 64.77 72 M0.54 -1.49 C2.26 5.83, -1.86 30.89, 8.67 43.31 C19.21 55.73, 54.57 67.91, 63.75 73.03" stroke="#1e1e1e" stroke-width="2" fill="none"></path></g></g><mask></mask><g stroke-linecap="round"><g transform="translate(397.9516276269796 207.96295181392225) rotate(0 -37.63993353974602 37.225279025067636)"><path d="M0.72 1.19 C-0.42 7.89, 4.76 28.7, -7.92 40.63 C-20.59 52.55, -64 67.14, -75.34 72.71 M-0.37 0.76 C-1.58 7.11, 3.68 26.89, -8.94 39.04 C-21.57 51.2, -64.94 68.22, -76.12 73.69" stroke="#1e1e1e" stroke-width="2" fill="none"></path></g></g><mask></mask><g stroke-linecap="round"><g transform="translate(420.5120248335187 344.8891655764276) rotate(0 61.97075105757838 -22.31475518025094)"><path d="M0.32 -0.19 C8.99 -6.61, 31.54 -31.27, 52.01 -38.79 C72.47 -46.3, 111.25 -44.28, 123.12 -45.27 M-0.03 0.64 C8.61 -5.7, 31.2 -30.73, 51.86 -38.33 C72.53 -45.94, 112.08 -44.01, 123.97 -45" stroke="#1e1e1e" stroke-width="2" fill="none"></path></g></g><mask></mask><g stroke-linecap="round"><g transform="translate(420.96095541962814 345.78702674864655) rotate(0 61.52709939001039 23.234384527653628)"><path d="M-0.05 -0.36 C8.64 6.48, 31.97 33.51, 52.43 41.29 C72.89 49.08, 110.89 45.41, 122.73 46.37 M-0.64 0.46 C7.97 7.32, 31.29 33.94, 52.02 41.65 C72.74 49.36, 111.97 45.94, 123.7 46.72" stroke="#1e1e1e" stroke-width="2" fill="none"></path></g></g><mask></mask><g stroke-linecap="round"><g transform="translate(112.99457334853929 286.528189382198) rotate(0 58.1762533355643 29.33008394733531)"><path d="M0.98 -0.44 C14.44 1.49, 61.82 1.02, 81.04 10.95 C100.26 20.88, 110.6 50.99, 116.32 59.13 M0.03 -1.72 C13.41 -0.08, 61.35 -1.2, 80.69 9.15 C100.02 19.5, 110.23 52.32, 116.05 60.38" stroke="#1e1e1e" stroke-width="2" fill="none"></path></g></g><mask></mask><g stroke-linecap="round"><g transform="translate(228.36973397867024 347.5827490930844) rotate(0 -57.01837333519694 18.594271226672664)"><path d="M-0.29 0.31 C-7.11 5.91, -21.78 27.93, -40.73 33.85 C-59.68 39.76, -101.74 35.45, -113.99 35.79 M0.13 0.2 C-6.74 5.69, -21.86 27.42, -40.91 33.39 C-59.96 39.37, -101.94 35.6, -114.17 36.07" stroke="#1e1e1e" stroke-width="2" fill="none"></path></g></g><mask></mask><g transform="translate(52.55833943684894 10) rotate(0 277.2749938964844 22.5)"><text x="0" y="0" font-family="Virgil, Segoe UI Emoji" font-size="36px" fill="#1e1e1e" text-anchor="start" style="white-space: pre;" direction="ltr" dominant-baseline="text-before-edge">Centralized Federated Learning</text></g><g stroke-linecap="round" transform="translate(1129.0746746154023 300.9230528515649) rotate(0 95.75396825396825 64.5079365079365)"><path d="M32 0 C77.37 -3.08, 122.91 -2.52, 159.51 0 C183.19 3.04, 192.81 8.06, 191.51 32 C191.4 52.83, 191.13 72.86, 191.51 97.02 C193.14 120.01, 181.36 128.14, 159.51 129.02 C121.53 126.23, 80.17 130.64, 32 129.02 C13.37 130.6, -1.47 118.16, 0 97.02 C-3.87 78.4, -0.52 63.73, 0 32 C2.87 12.74, 9.05 -1.83, 32 0" stroke="none" stroke-width="0" fill="#b2f2bb"></path><path d="M32 0 C56.76 1.63, 82.57 0.95, 159.51 0 M32 0 C63.23 1.15, 94.26 -0.29, 159.51 0 M159.51 0 C181.75 -0.84, 192.89 8.93, 191.51 32 M159.51 0 C180.88 -0.46, 190.45 9.47, 191.51 32 M191.51 32 C191.56 49.1, 190.21 60.53, 191.51 97.02 M191.51 32 C191.31 48.49, 190.95 65.72, 191.51 97.02 M191.51 97.02 C193.48 119.36, 179.29 127.94, 159.51 129.02 M191.51 97.02 C192.04 116.9, 182.55 130.88, 159.51 129.02 M159.51 129.02 C113.15 128.3, 69.32 129.51, 32 129.02 M159.51 129.02 C124.87 128.59, 89.75 129.73, 32 129.02 M32 129.02 C12.52 127.38, 1.1 117.8, 0 97.02 M32 129.02 C10.78 129.97, 1.11 116.69, 0 97.02 M0 97.02 C1.39 83.24, 0.78 68.46, 0 32 M0 97.02 C0.18 80.74, -1.01 62.5, 0 32 M0 32 C-0.09 12.29, 11.58 -0.1, 32 0 M0 32 C0.57 9.21, 11.69 0.77, 32 0" stroke="#2f9e44" stroke-width="2" fill="none"></path></g><g transform="translate(1181.945307755845 352.9309893595014) rotate(0 42.88333511352539 12.5)"><text x="42.88333511352539" y="0" font-family="Virgil, Segoe UI Emoji" font-size="20px" fill="#2f9e44" text-anchor="middle" style="white-space: pre;" direction="ltr" dominant-baseline="text-before-edge">Master 1</text></g><g stroke-linecap="round" transform="translate(906.1143571550848 600.7105203908883) rotate(0 95.75396825396825 64.50793650793652)"><path d="M32 0 C62.06 -1.56, 88.96 -1.91, 159.51 0 C177.28 3.39, 192.32 13.3, 191.51 32 C187.77 55.51, 189.37 82.87, 191.51 97.02 C190.85 119.77, 177.69 130.48, 159.51 129.02 C125.79 123.45, 96.86 127.86, 32 129.02 C7.53 131.02, -2.06 117.81, 0 97.02 C-3.64 80.87, 1.88 69.91, 0 32 C0.54 7.58, 14.11 1.29, 32 0" stroke="none" stroke-width="0" fill="#b2f2bb"></path><path d="M32 0 C73.39 -0.11, 111 2.61, 159.51 0 M32 0 C60.49 1.3, 90.51 0.06, 159.51 0 M159.51 0 C182.36 -1.5, 190.48 9.72, 191.51 32 M159.51 0 C180.74 2.26, 190.92 12.64, 191.51 32 M191.51 32 C189.39 56.34, 189.72 78.64, 191.51 97.02 M191.51 32 C191.94 54.18, 191.79 77.34, 191.51 97.02 M191.51 97.02 C193.16 117.03, 178.96 130.66, 159.51 129.02 M191.51 97.02 C192.46 120.41, 180.39 127.29, 159.51 129.02 M159.51 129.02 C127.7 129.09, 95.62 128.24, 32 129.02 M159.51 129.02 C112.22 129.26, 63.83 128.66, 32 129.02 M32 129.02 C10.13 127.44, -1.91 118.97, 0 97.02 M32 129.02 C11.1 127.54, -2.03 118.99, 0 97.02 M0 97.02 C0.41 82.18, 1.71 69.22, 0 32 M0 97.02 C0.94 78.29, 0.61 61.05, 0 32 M0 32 C-1.8 11.19, 8.95 -0.5, 32 0 M0 32 C2.15 8.54, 11.18 -1.86, 32 0" stroke="#2f9e44" stroke-width="2" fill="none"></path></g><g transform="translate(954.5766574708206 652.7184568988248) rotate(0 47.29166793823242 12.5)"><text x="47.29166793823242" y="0" font-family="Virgil, Segoe UI Emoji" font-size="20px" fill="#2f9e44" text-anchor="middle" style="white-space: pre;" direction="ltr" dominant-baseline="text-before-edge">Master 2</text></g><g stroke-linecap="round" transform="translate(861.1143571550848 791.0716315019994) rotate(0 51.5 32.5)"><path d="M16.25 0 C43.48 1.06, 63.18 0.33, 86.75 0 C96.17 -1.59, 104.52 8.92, 103 16.25 C99.24 29.21, 102.22 34.75, 103 48.75 C104.2 60.2, 94.42 67.96, 86.75 65 C67.79 63.63, 50.66 67.66, 16.25 65 C8.98 65.5, 0.49 60.89, 0 48.75 C2.65 39.33, 0.47 24.9, 0 16.25 C0.17 6.28, 5.18 3, 16.25 0" stroke="none" stroke-width="0" fill="#a5d8ff"></path><path d="M16.25 0 C38.54 -0.69, 61.35 -0.59, 86.75 0 M16.25 0 C38.24 -0.7, 59.14 0.64, 86.75 0 M86.75 0 C98.05 -1.93, 101.89 4.49, 103 16.25 M86.75 0 C98.15 -1.72, 102.12 5.02, 103 16.25 M103 16.25 C103.06 26.04, 103.3 32.32, 103 48.75 M103 16.25 C103.69 27.18, 102.44 35.7, 103 48.75 M103 48.75 C104.34 61.53, 98.04 64.18, 86.75 65 M103 48.75 C104.13 58.79, 98.01 66.24, 86.75 65 M86.75 65 C70.98 64.68, 51.84 64.43, 16.25 65 M86.75 65 C70.3 64.54, 54.5 64.14, 16.25 65 M16.25 65 C7.18 64.54, -1.04 59.98, 0 48.75 M16.25 65 C7.57 64.45, 1.15 57.89, 0 48.75 M0 48.75 C-0.7 36.76, -0.14 29.43, 0 16.25 M0 48.75 C0.26 36.27, 0.98 23.02, 0 16.25 M0 16.25 C0.97 3.92, 5.81 1.26, 16.25 0 M0 16.25 C-1.01 5.84, 5.7 2, 16.25 0" stroke="#1971c2" stroke-width="2" fill="none"></path></g><g transform="translate(885.5643579180243 811.0716315019994) rotate(0 27.049999237060547 12.5)"><text x="27.049999237060547" y="0" font-family="Virgil, Segoe UI Emoji" font-size="20px" fill="#1971c2" text-anchor="middle" style="white-space: pre;" direction="ltr" dominant-baseline="text-before-edge">Client</text></g><g stroke-linecap="round" transform="translate(1043.6143571550847 791.0716315019994) rotate(0 51.5 32.5)"><path d="M16.25 0 C44.87 2.61, 70.99 1.58, 86.75 0 C95.14 -2.76, 100.74 2.35, 103 16.25 C104.66 27.09, 106.61 33.53, 103 48.75 C99.47 63.15, 96.71 67.3, 86.75 65 C68.51 67.75, 42.96 68.89, 16.25 65 C3.3 65.8, -2.88 57.55, 0 48.75 C-3.05 36.85, 1.49 30.28, 0 16.25 C2.96 4.16, 4.13 -1.24, 16.25 0" stroke="none" stroke-width="0" fill="#a5d8ff"></path><path d="M16.25 0 C43.43 0.3, 69.9 1.03, 86.75 0 M16.25 0 C42.85 0.17, 70.44 -0.6, 86.75 0 M86.75 0 C99.14 -0.8, 103.89 3.55, 103 16.25 M86.75 0 C98.14 -2.14, 103.33 4.94, 103 16.25 M103 16.25 C104.63 22.94, 103.34 31.48, 103 48.75 M103 16.25 C102.29 24.45, 103.76 31.7, 103 48.75 M103 48.75 C102 58.38, 96.27 64.58, 86.75 65 M103 48.75 C105 60.51, 96.99 62.8, 86.75 65 M86.75 65 C60.89 66.58, 31.73 65.4, 16.25 65 M86.75 65 C61.15 64.75, 34.5 65.09, 16.25 65 M16.25 65 C7.13 64.83, 0.61 58.15, 0 48.75 M16.25 65 C3.33 65.51, -1.66 61.73, 0 48.75 M0 48.75 C-0.99 40.74, 1.82 31.1, 0 16.25 M0 48.75 C-0.58 38.58, 0.84 28.63, 0 16.25 M0 16.25 C1.59 5.53, 7.27 1.42, 16.25 0 M0 16.25 C-2.13 4.37, 4.05 2.13, 16.25 0" stroke="#1971c2" stroke-width="2" fill="none"></path></g><g transform="translate(1068.0643579180241 811.0716315019994) rotate(0 27.049999237060547 12.5)"><text x="27.049999237060547" y="0" font-family="Virgil, Segoe UI Emoji" font-size="20px" fill="#1971c2" text-anchor="middle" style="white-space: pre;" direction="ltr" dominant-baseline="text-before-edge">Client</text></g><g stroke-linecap="round"><g transform="translate(1001.1143571550848 728.3216315019994) rotate(0 -45.03792826049033 32.69247169969603)"><path d="M0.89 0.47 C-11.93 4.02, -62.5 10.86, -77.81 21.49 C-93.12 32.13, -89.04 57.33, -90.97 64.26 M-0.1 -0.32 C-12.46 3.37, -60.78 11.76, -75.53 22.77 C-90.28 33.77, -86.37 58.9, -88.58 65.71" stroke="#1e1e1e" stroke-width="2" fill="none"></path></g></g><mask></mask><g stroke-linecap="round"><g transform="translate(999.1143571550848 728.3216315019994) rotate(0 47.298963829027514 30.707937252800917)"><path d="M0.17 -0.2 C14.5 4.01, 68.94 15.61, 84.88 25.86 C100.81 36.11, 94.05 55.56, 95.79 61.29 M-1.19 -1.34 C13.15 2.47, 68.37 13.5, 84.39 24.19 C100.41 34.87, 93.12 56.64, 94.92 62.76" stroke="#1e1e1e" stroke-width="2" fill="none"></path></g></g><mask></mask><g stroke-linecap="round" transform="translate(1364.3683254090529 600.3119417404538) rotate(0 95.75396825396831 64.50793650793652)"><path d="M32 0 C67.36 -0.19, 94.03 -1.4, 159.51 0 C184.17 0.48, 190.32 11.82, 191.51 32 C193.65 49.39, 191.12 66.37, 191.51 97.02 C194.65 118.82, 183.34 125.94, 159.51 129.02 C117.06 129.27, 71.25 128.67, 32 129.02 C13.93 126, -2.81 115.51, 0 97.02 C2.64 74.91, -1.26 58.08, 0 32 C3.54 7.94, 8.58 2.43, 32 0" stroke="none" stroke-width="0" fill="#b2f2bb"></path><path d="M32 0 C63.95 -0.24, 95.01 1.81, 159.51 0 M32 0 C66.35 0.11, 100.67 -0.56, 159.51 0 M159.51 0 C180.44 -0.92, 190.46 9.36, 191.51 32 M159.51 0 C180.79 2.26, 191.58 12.77, 191.51 32 M191.51 32 C190.77 48.68, 190.52 61.07, 191.51 97.02 M191.51 32 C191.45 47.29, 190.41 64.37, 191.51 97.02 M191.51 97.02 C190.25 119.83, 182.46 130.25, 159.51 129.02 M191.51 97.02 C192.91 119.1, 180.53 127.72, 159.51 129.02 M159.51 129.02 C107.04 129.36, 58.93 127.07, 32 129.02 M159.51 129.02 C108.52 130.75, 58.9 130.24, 32 129.02 M32 129.02 C11.49 129.98, -1.44 116.76, 0 97.02 M32 129.02 C10.56 129.83, 1.57 119.01, 0 97.02 M0 97.02 C1.85 76.55, 1.54 54.7, 0 32 M0 97.02 C1.08 80.51, 0.22 63.35, 0 32 M0 32 C-1.27 11.56, 11.34 1.26, 32 0 M0 32 C0.16 11.35, 10.07 -1.54, 32 0" stroke="#2f9e44" stroke-width="2" fill="none"></path></g><g transform="translate(1413.1389600753746 652.3198782483903) rotate(0 46.983333587646484 12.5)"><text x="46.983333587646484" y="0" font-family="Virgil, Segoe UI Emoji" font-size="20px" fill="#2f9e44" text-anchor="middle" style="white-space: pre;" direction="ltr" dominant-baseline="text-before-edge">Master 3</text></g><g stroke-linecap="round" transform="translate(1320.3643571550847 791.4702101524339) rotate(0 51.5 32.5)"><path d="M16.25 0 C32.55 1.78, 49.42 -1.43, 86.75 0 C100.74 3.03, 103.88 3.39, 103 16.25 C99.38 30.52, 99.13 43.24, 103 48.75 C106.57 57.4, 97.88 62.44, 86.75 65 C67.02 66.78, 45.87 63.2, 16.25 65 C3.24 63.08, 0.2 57.63, 0 48.75 C-3.16 36.5, 1.2 22.41, 0 16.25 C-0.78 1.95, 7.27 2.29, 16.25 0" stroke="none" stroke-width="0" fill="#a5d8ff"></path><path d="M16.25 0 C37.19 -0.84, 55.3 -2.01, 86.75 0 M16.25 0 C34.32 -0.53, 51.92 -0.11, 86.75 0 M86.75 0 C97.45 0.74, 103.84 4.4, 103 16.25 M86.75 0 C99.23 1.95, 100.99 4.23, 103 16.25 M103 16.25 C102.52 27.56, 101.16 42.44, 103 48.75 M103 16.25 C102.29 28.84, 102.64 40.83, 103 48.75 M103 48.75 C104.2 57.7, 98.77 63.29, 86.75 65 M103 48.75 C103.96 57.4, 96.18 66.72, 86.75 65 M86.75 65 C72.37 65.12, 57.54 64.94, 16.25 65 M86.75 65 C62.23 64.63, 36.44 63.92, 16.25 65 M16.25 65 C6.66 66.34, 0.32 59.92, 0 48.75 M16.25 65 C4.67 67.09, -1.63 60.8, 0 48.75 M0 48.75 C0.8 40.93, 0.21 32.45, 0 16.25 M0 48.75 C0.57 41.48, -1.19 33.88, 0 16.25 M0 16.25 C-0.95 6.41, 3.53 1.49, 16.25 0 M0 16.25 C-1.29 6.4, 6.29 1.26, 16.25 0" stroke="#1971c2" stroke-width="2" fill="none"></path></g><g transform="translate(1344.8143579180241 811.4702101524339) rotate(0 27.049999237060547 12.5)"><text x="27.049999237060547" y="0" font-family="Virgil, Segoe UI Emoji" font-size="20px" fill="#1971c2" text-anchor="middle" style="white-space: pre;" direction="ltr" dominant-baseline="text-before-edge">Client</text></g><g stroke-linecap="round" transform="translate(1502.8643571550847 791.4702101524339) rotate(0 51.5 32.5)"><path d="M16.25 0 C32.03 -2.34, 56.88 2.55, 86.75 0 C98.47 -2.03, 105.39 3.3, 103 16.25 C98.94 28.24, 106.04 31.73, 103 48.75 C103.3 57.02, 96.42 62.1, 86.75 65 C65.97 64.67, 49.24 63.92, 16.25 65 C5.62 63.05, 1.9 61.6, 0 48.75 C1.98 36.98, -0.32 28.58, 0 16.25 C1.85 7.71, 3.58 1.61, 16.25 0" stroke="none" stroke-width="0" fill="#a5d8ff"></path><path d="M16.25 0 C36.86 -1.67, 58.88 -0.36, 86.75 0 M16.25 0 C38.37 0.27, 58.7 0.74, 86.75 0 M86.75 0 C98.42 -1.02, 104.43 7.11, 103 16.25 M86.75 0 C95.57 -1.18, 105.05 3.97, 103 16.25 M103 16.25 C101.32 27.62, 104.7 38.95, 103 48.75 M103 16.25 C102.03 23.07, 103.28 30.1, 103 48.75 M103 48.75 C104.19 57.88, 98.42 63.1, 86.75 65 M103 48.75 C101.6 61.31, 95.57 63.38, 86.75 65 M86.75 65 C62.59 64.47, 38.19 63.51, 16.25 65 M86.75 65 C72.59 64.76, 58 65.87, 16.25 65 M16.25 65 C5.74 65.33, -0.65 61.4, 0 48.75 M16.25 65 C3.78 66.22, -0.55 61.62, 0 48.75 M0 48.75 C0.32 39.05, -1.41 27.64, 0 16.25 M0 48.75 C-1.2 41.46, -0.74 33.45, 0 16.25 M0 16.25 C-1.89 6.9, 4.29 0.86, 16.25 0 M0 16.25 C0.88 6.68, 4.41 1.13, 16.25 0" stroke="#1971c2" stroke-width="2" fill="none"></path></g><g transform="translate(1527.3143579180241 811.4702101524339) rotate(0 27.049999237060547 12.5)"><text x="27.049999237060547" y="0" font-family="Virgil, Segoe UI Emoji" font-size="20px" fill="#1971c2" text-anchor="middle" style="white-space: pre;" direction="ltr" dominant-baseline="text-before-edge">Client</text></g><g stroke-linecap="round"><g transform="translate(1460.3643571550847 728.7202101524339) rotate(0 -44.55626930264759 31.86471819217317)"><path d="M-1.16 -0.64 C-13.98 3.16, -62.71 11.35, -77.38 22.02 C-92.05 32.69, -87.26 56.4, -89.19 63.38 M0.42 1.64 C-12.55 5.71, -63.53 13.11, -78.53 23.57 C-93.52 34.02, -87.93 57.47, -89.54 64.37" stroke="#1e1e1e" stroke-width="2" fill="none"></path></g></g><mask></mask><g stroke-linecap="round"><g transform="translate(1458.3643571550847 728.7202101524339) rotate(0 48.327251385524846 30.562178216855983)"><path d="M-0.38 0.02 C13.95 4.19, 68.57 14.23, 84.81 24.38 C101.04 34.52, 95.18 54.71, 97.03 60.88 M1.62 -1.02 C15.97 3.36, 68.42 15.06, 84.28 25.59 C100.14 36.11, 94.83 55.94, 96.81 62.14" stroke="#1e1e1e" stroke-width="2" fill="none"></path></g></g><mask></mask><g stroke-linecap="round" transform="translate(1081.3643571550847 132.42305285156488) rotate(0 51.5 32.5)"><path d="M16.25 0 C35.62 2.79, 54.71 2.3, 86.75 0 C96.41 -2.17, 100.65 5.35, 103 16.25 C105.09 26.56, 102.9 39.32, 103 48.75 C101.76 62.3, 96.48 67.48, 86.75 65 C73.06 63, 61.13 67.91, 16.25 65 C8.14 65.5, -1.97 56.71, 0 48.75 C3.44 39.62, 3.52 34.31, 0 16.25 C-2.78 6.82, 4.01 2.99, 16.25 0" stroke="none" stroke-width="0" fill="#a5d8ff"></path><path d="M16.25 0 C31.78 -1.03, 49.38 -0.66, 86.75 0 M16.25 0 C41.83 0.49, 67.28 0.57, 86.75 0 M86.75 0 C97.3 1.29, 103.84 5.24, 103 16.25 M86.75 0 C98.71 1.8, 102.34 6.68, 103 16.25 M103 16.25 C101.84 26.42, 102.45 35.03, 103 48.75 M103 16.25 C103.01 27.94, 102.1 38.79, 103 48.75 M103 48.75 C103.44 60.17, 98.19 64.29, 86.75 65 M103 48.75 C103.69 60.42, 98.58 67.16, 86.75 65 M86.75 65 C67.53 63.76, 45.94 65.66, 16.25 65 M86.75 65 C66.25 64.18, 46.32 64.37, 16.25 65 M16.25 65 C5.67 65.97, -1.37 58.49, 0 48.75 M16.25 65 C5.16 64.4, 0.89 61.5, 0 48.75 M0 48.75 C-1.14 38.47, 1.73 26.24, 0 16.25 M0 48.75 C0.1 39.45, -0.79 29.2, 0 16.25 M0 16.25 C-0.94 6.73, 6.87 -0.25, 16.25 0 M0 16.25 C-0.55 3.49, 5.86 -0.54, 16.25 0" stroke="#1971c2" stroke-width="2" fill="none"></path></g><g transform="translate(1105.8143579180241 152.42305285156488) rotate(0 27.049999237060547 12.5)"><text x="27.049999237060547" y="0" font-family="Virgil, Segoe UI Emoji" font-size="20px" fill="#1971c2" text-anchor="middle" style="white-space: pre;" direction="ltr" dominant-baseline="text-before-edge">Client</text></g><g stroke-linecap="round" transform="translate(1263.8643571550847 132.42305285156488) rotate(0 51.5 32.5)"><path d="M16.25 0 C41.07 -2.87, 65.89 -0.77, 86.75 0 C97.93 -2.78, 101.37 7.96, 103 16.25 C101.82 28.95, 101.95 38.68, 103 48.75 C99.5 60.65, 99.27 65.61, 86.75 65 C73.4 66.32, 52.63 62.94, 16.25 65 C3.37 63.55, -2.61 62.79, 0 48.75 C-3.31 41.51, -1.94 34.45, 0 16.25 C-1.82 2.02, 7.12 -1.17, 16.25 0" stroke="none" stroke-width="0" fill="#a5d8ff"></path><path d="M16.25 0 C36.66 0.84, 53.6 0.78, 86.75 0 M16.25 0 C37.79 0.53, 60.03 -0.2, 86.75 0 M86.75 0 C98.57 1.57, 102.42 6.51, 103 16.25 M86.75 0 C96.69 -0.03, 100.89 4.08, 103 16.25 M103 16.25 C103.66 26.83, 103.82 41.83, 103 48.75 M103 16.25 C103.03 28.65, 103.11 40.12, 103 48.75 M103 48.75 C103.6 60.31, 98.45 66.88, 86.75 65 M103 48.75 C102.96 61.23, 96.98 67.07, 86.75 65 M86.75 65 C69.12 66.78, 51.48 65.25, 16.25 65 M86.75 65 C70.54 65.14, 53.4 64.11, 16.25 65 M16.25 65 C5.2 64.48, 0.77 61.25, 0 48.75 M16.25 65 C6.65 63.62, 1.75 58.05, 0 48.75 M0 48.75 C-0.01 38.83, -2 26.08, 0 16.25 M0 48.75 C-0.31 36.89, 0.89 23.6, 0 16.25 M0 16.25 C-0.48 3.74, 5.8 -0.47, 16.25 0 M0 16.25 C-0.14 4.2, 4.85 -0.86, 16.25 0" stroke="#1971c2" stroke-width="2" fill="none"></path></g><g transform="translate(1288.3143579180241 152.42305285156488) rotate(0 27.049999237060547 12.5)"><text x="27.049999237060547" y="0" font-family="Virgil, Segoe UI Emoji" font-size="20px" fill="#1971c2" text-anchor="middle" style="white-space: pre;" direction="ltr" dominant-baseline="text-before-edge">Client</text></g><g stroke-linecap="round"><g transform="translate(1129.1143571550847 199.92305285156488) rotate(0 46.13844023241802 50.12812175810337)"><path d="M-0.28 -0.18 C0.34 9.89, -11.66 43.13, 4.43 59.96 C20.52 76.8, 81.03 93.78, 96.28 100.85 M1.78 -1.31 C2.21 8.47, -11.94 41.2, 3.71 58.35 C19.36 75.49, 80.26 94.01, 95.66 101.57" stroke="#1e1e1e" stroke-width="2" fill="none"></path></g></g><mask></mask><g stroke-linecap="round"><g transform="translate(1313.1143571550847 199.92305285156488) rotate(0 -39.449098494027226 49.781828948212784)"><path d="M0.67 -0.25 C0.67 9.31, 14.45 39.96, 0.14 56.83 C-14.17 73.71, -70.86 93.98, -85.2 100.99 M-0.44 -1.43 C-0.51 8.28, 13.97 40.99, -0.21 57.76 C-14.39 74.52, -71.32 92.23, -85.54 99.17" stroke="#1e1e1e" stroke-width="2" fill="none"></path></g></g><mask></mask><g stroke-linecap="round"><g transform="translate(1226.1143571550847 427.9230528515649) rotate(0 -114.16109330169854 85.96523370854557)"><path d="M-0.43 0.48 C-38.33 28.95, -190.07 142.98, -227.89 171.45" stroke="#1e1e1e" stroke-width="2.5" fill="none" stroke-dasharray="1.5 8"></path></g></g><mask></mask><g stroke-linecap="round"><g transform="translate(1225.1143571550847 427.9230528515649) rotate(0 111.87190171591931 86.76772914417089)"><path d="M-0.13 1.04 C37.34 29.87, 186.31 143.8, 223.87 172.5" stroke="#1e1e1e" stroke-width="2.5" fill="none" stroke-dasharray="1.5 8"></path></g></g><mask></mask><g stroke-linecap="round"><g transform="translate(1005.1143571550848 600.9230528515649) rotate(0 221.46328125136222 -0.4113330133458817)"><path d="M-0.14 0.08 C73.68 -0.06, 369.21 -0.74, 443.07 -0.9" stroke="#1e1e1e" stroke-width="2.5" fill="none" stroke-dasharray="1.5 8"></path></g></g><mask></mask><g transform="translate(941.4560319597723 10) rotate(0 292.0333251953125 22.5)"><text x="0" y="0" font-family="Virgil, Segoe UI Emoji" font-size="36px" fill="#1e1e1e" text-anchor="start" style="white-space: pre;" direction="ltr" dominant-baseline="text-before-edge">Multi-Master Federated Learning</text></g></svg>